<?xml version="1.0" encoding="utf-8"?>
<!-- Svg Vector Icons : http://www.onlinewebfonts.com/icon -->
<!DOCTYPE svg PUBLIC "-//W3C//DTD SVG 1.1//EN" "http://www.w3.org/Graphics/SVG/1.1/DTD/svg11.dtd">
<svg version="1.1" xmlns="http://www.w3.org/2000/svg" xmlns:xlink="http://www.w3.org/1999/xlink" x="0px" y="0px" viewBox="0 0 1000 1000" enable-background="new 0 0 1000 1000" xml:space="preserve">
<metadata> Svg Vector Icons : http://www.onlinewebfonts.com/icon </metadata>
<g><g id="walnut" transform="translate(0.000000,511.000000) scale(0.100000,-0.100000)"><path d="M4062.2,3901.2c-1108.7-124.6-2372.7-820.8-2895.4-1594.7c-157.2-234.8-259.3-451.2-383.9-818.8c-138.8-414.5-269.5-677.9-477.8-959.7c-87.8-120.5-171.5-253.2-185.8-294C58.1,48.2,139.7-137.6,405.2-429.6c222.6-245,357.3-465.5,451.3-737.1c422.7-1210.8,1398.7-2056.2,2623.8-2270.6c114.3-20.4,416.5-38.8,796.3-51.1c688.1-20.4,1047.5-53.1,1613.1-147c306.3-51,447.2-65.3,673.8-65.3c263.4,0,308.3,6.1,561.5,73.5c808.6,216.4,1388.5,539,1862.2,1033.2c351.2,367.5,635,837.2,794.3,1312.9c126.6,379.8,120.5,653.4-20.4,986.2c-44.9,102.1-85.7,228.7-93.9,279.7c-18.4,118.4,26.5,304.2,110.3,451.3c181.7,326.7,163.3,690.1-67.4,1237.4c-330.8,780-927,1366-1776.4,1745.8c-628.9,279.7-1310.9,428.8-2227.7,483.9C5299.5,3927.8,4282.7,3925.7,4062.2,3901.2z M5940.7,3323.4c959.7-89.8,1337.4-189.9,2029.6-537c569.7-283.8,925-643.2,1184.3-1192.5c140.9-298.1,202.1-496.2,202.1-663.6c0-130.7-8.2-163.3-104.1-369.6c-59.2-126.6-106.2-232.8-106.2-236.9c0-6.1-18.4-51-38.8-102.1l-38.8-89.8L8736,183c-365.5,57.2-722.8,65.3-2193,47c-528.8-6.1-706.5,0-929.1,28.6c-369.6,47-1437.5,63.3-2064.3,32.7c-526.8-26.6-1482.4-85.8-2284.8-142.9c-285.9-20.4-528.9-28.6-539.1-20.4c-10.2,8.2,30.6,77.6,87.8,155.2c165.4,218.5,334.9,575.8,463.5,982.1c128.6,400.2,202.2,563.6,345.1,755.5c198.1,269.5,392,445.1,769.8,694.2c508.4,332.8,994.4,539.1,1496.7,626.9C4107.1,3380.5,5456.7,3368.3,5940.7,3323.4z M9068.8-43.7c65.3-53.1,163.3-259.3,210.3-445.1c51-196,34.7-526.8-38.8-743.2c-114.3-336.9-343-669.7-726.9-1051.6c-741.2-741.2-1486.5-971.9-2623.8-810.6c-551.3,79.6-996.4,116.4-1643.7,136.8c-622.8,20.4-743.2,36.8-1072,145c-694.2,230.7-1323.1,786.1-1662.1,1462c-47,93.9-116.4,267.5-157.2,388c-79.6,236.8-155.2,394.1-300.1,641.1c-51,85.8-108.2,185.8-126.6,220.5l-32.7,65.3l67.4-10.2c36.8-8.2,361.4-30.6,720.8-53.1c1121-71.5,1506.9-130.7,2144-326.7c334.9-104.2,624.8-145,1020.9-147c535,0,957.6,59.2,1950,279.7C7900.9-47.7,8182.6-6.9,8809.5-0.8C8991.2,1.3,9019.8-2.8,9068.8-43.7z"/><path d="M5123.9,2670c-51.1-14.3-124.6-40.8-163.3-59.2l-71.5-30.6l91.9-2c279.7-6.1,673.8-106.2,1072-273.6c334.9-140.9,412.5-163.3,602.4-163.3c126.6-2,191.9,10.2,373.7,75.5c185.8,63.3,247.1,75.6,388,75.6c189.9,0,349.2-44.9,490-140.9c145-98,145-98,104.1-22.5c-73.5,130.7-296.1,334.9-404.3,371.6c-138.8,47-318.5,42.9-500.3-10.2c-128.6-38.8-204.2-47-430.8-47l-275.7,2L6053,2565.8c-339,116.4-353.2,118.4-592.1,124.6C5299.5,2694.5,5185.2,2688.3,5123.9,2670z"/><path d="M5166.8,1575.5c-151.1-32.7-287.9-81.7-483.9-175.6c-334.9-163.3-547.2-181.7-1080.1-100c-381.8,59.2-759.6,67.4-980.1,20.4c-155.2-32.7-432.9-159.3-530.9-240.9l-61.3-51l194,51c138.8,34.7,271.6,53.1,471.7,61.3c320.6,14.3,510.5-8.2,876-102.1c224.6-57.2,287.9-65.3,520.7-65.3c306.3,2,418.6,30.6,686.1,185.8c447.2,259.3,849.4,308.3,1339.5,169.5c116.4-34.7,240.9-59.2,277.7-55.1c61.3,6.1,53.1,12.2-118.4,100c-294,153.1-486,206.2-775.9,214.4C5366.9,1591.9,5215.8,1585.7,5166.8,1575.5z"/><path d="M5317.9-964.6c-77.6-16.3-191.9-47-251.1-69.4c-110.3-42.9-318.5-165.4-304.2-179.7c4.1-6.1,67.4,4.1,138.8,20.4c304.2,67.4,665.7,57.2,1131.2-30.6c112.3-20.4,271.6-38.8,353.2-38.8c257.3,0,1788.7,102.1,1807.1,120.5c10.2,10.2,14.3,34.7,10.2,55.1c-8.2,51-91.9,59.2-965.8,98C6140.8-940,5487.4-931.9,5317.9-964.6z"/><path d="M2571.6-1883.4c0-16.3,263.4-177.6,388-234.8c196-91.9,420.6-142.9,733-165.4c310.4-24.5,633-85.8,1441.6-275.7c304.2-71.5,567.6-132.7,590.1-136.8c24.5-4.1,42.9,10.2,53.1,36.7c16.3,40.8-10.2,55.1-424.7,218.5c-778,304.2-1080.2,383.9-1596.7,422.7c-373.7,28.6-971.9,96-1063.8,122.5C2620.6-1875.2,2571.6-1869.1,2571.6-1883.4z"/></g></g>
</svg>